<svg width="124" height="63" viewBox="0 0 124 63" fill="none" xmlns="http://www.w3.org/2000/svg">
<path d="M116.105 17.7587L115.03 1.73616C114.938 0.706201 114.029 -0.0556698 112.999 0.0346058L2.60677 9.80078C1.57681 9.89243 0.814936 10.802 0.905211 11.832L4.79253 55.7757C4.88418 56.8056 5.79377 57.5675 6.82373 57.4772L9.15585 57.2707C9.33777 57.2543 9.51696 57.2119 9.68656 57.1435L114.952 24.7154C116.368 20.1948 116.178 18.5821 116.105 17.7587Z" fill="#FFC700"/>
<path d="M122.366 62.4074H11.0642C10.1615 62.4074 9.42969 61.6756 9.42969 60.7729V16.1795C9.42969 15.2767 10.1615 14.5449 11.0642 14.5449H122.366C123.269 14.5449 124 15.2767 124 16.1795V60.7729C124 61.6756 123.269 62.4074 122.366 62.4074Z" fill="#001767"/>
<path d="M106.588 22.8984H26.8417C26.8417 26.9143 23.5863 30.1684 19.5718 30.1684V46.7845C23.5877 46.7845 26.8417 50.0399 26.8417 54.0545H106.588C106.588 50.0386 109.843 46.7845 113.858 46.7845V30.1697C109.843 30.1697 106.588 26.9143 106.588 22.8984Z" fill="#F6F8FF"/>
<path d="M66.7146 46.3853C71.0802 46.3853 74.6192 42.8463 74.6192 38.4808C74.6192 34.1152 71.0802 30.5762 66.7146 30.5762C62.3491 30.5762 58.8101 34.1152 58.8101 38.4808C58.8101 42.8463 62.3491 46.3853 66.7146 46.3853Z" fill="#FFE600"/>
</svg>
