<svg width="107" height="89" viewBox="0 0 107 89" fill="none" xmlns="http://www.w3.org/2000/svg">
<path d="M10.9731 30.3409V84.9406C10.9731 86.8001 12.4811 88.308 14.3406 88.308H92.5611C94.4207 88.308 95.9286 86.8001 95.9286 84.9406V30.3409V14.6468C95.9286 12.7872 94.4207 11.2793 92.5611 11.2793H14.3406C12.4811 11.2805 10.9731 12.7872 10.9731 14.6468V30.3409Z" fill="#001767"/>
<path d="M82.1637 41.9414H64.8047C63.4171 41.9414 62.2915 43.0671 62.2915 44.4546V83.7542H84.6769V44.4546C84.6769 43.0671 83.5513 41.9414 82.1637 41.9414Z" fill="#F2F6FF"/>
<path d="M49.2065 71.3191H24.6194C23.2967 71.3191 22.2241 70.2465 22.2241 68.9238V44.3366C22.2241 43.014 23.2967 41.9414 24.6194 41.9414H49.2077C50.5304 41.9414 51.603 43.014 51.603 44.3366V68.925C51.6018 70.2477 50.5292 71.3191 49.2065 71.3191Z" fill="#F2F6FF"/>
<path d="M11.2093 30.3407H10.7373C5.00289 30.3407 0.354004 25.6919 0.354004 19.9574V16.354C6.82115 14.1817 13.8429 13.9752 21.5926 16.354V19.9574C21.5926 25.6919 16.9437 30.3407 11.2093 30.3407Z" fill="#FFC700"/>
<path d="M32.448 30.3417H31.9761C26.2417 30.3417 21.5928 25.6928 21.5928 19.9584V16.3549C29.1301 14.8199 36.2556 14.6641 42.8313 16.3549V19.9584C42.8313 25.6928 38.1825 30.3417 32.448 30.3417Z" fill="#B0B6BC"/>
<path d="M95.6914 30.3421H96.1634C101.898 30.3421 106.547 25.6932 106.547 19.9588V16.3553C99.9521 14.6055 92.7982 14.8769 85.3081 16.3553V19.9588C85.3081 25.6932 89.957 30.3421 95.6914 30.3421Z" fill="#FFC700"/>
<path d="M74.4531 30.3422H74.9251C80.6595 30.3422 85.3084 25.6934 85.3084 19.9589V16.3555C78.2289 13.3372 71.1493 13.3372 64.0698 16.3555V19.9589C64.0698 25.6934 68.7187 30.3422 74.4531 30.3422Z" fill="#B0B6BC"/>
<path d="M42.8313 16.3549C43.9275 11.6564 43.8473 6.14974 42.8313 0H27.7579C23.7084 5.45123 21.6541 10.9036 21.5928 16.3549H42.8313Z" fill="#F2F6FF"/>
<path d="M0.354004 16.3556L13.7933 0.00195312H27.7636L21.5926 16.3556H0.354004Z" fill="#FFE600"/>
<path d="M64.0696 16.3549C61.5128 11.0582 61.8856 5.58456 64.0696 0H79.1431C84.1743 6.12261 86.4811 11.6317 85.3082 16.3549H64.0696Z" fill="#F2F6FF"/>
<path d="M106.547 16.3556L93.1079 0.00195312H79.1494L85.3086 16.3556H106.547Z" fill="#FFE600"/>
<path d="M53.6863 30.3422H53.2144C47.4799 30.3422 42.8311 25.6934 42.8311 19.9589V16.3555C49.9106 13.3372 56.9901 13.3372 64.0696 16.3555V19.9589C64.0696 25.6934 59.4207 30.3422 53.6863 30.3422Z" fill="#FFC700"/>
<path d="M42.8311 0.00195312H55.5388H64.0696V16.3556H42.8311V0.00195312Z" fill="#FFE600"/>
</svg>
