<svg width="96" height="86" viewBox="0 0 96 86" fill="none" xmlns="http://www.w3.org/2000/svg">
<path d="M50.4572 6.80078H44.8125V8.75106H50.4572V6.80078Z" fill="#001767"/>
<path d="M71.1024 64.296C71.1024 64.296 71.1024 64.2008 71.1024 64.1374V7.37304C71.1066 6.4063 70.9198 5.44826 70.5527 4.5539C70.1856 3.65955 69.6455 2.84651 68.9634 2.16144C68.2813 1.47637 67.4706 0.932777 66.5778 0.56186C65.6851 0.190943 64.7278 8.25354e-06 63.7611 1.72731e-05H31.4783C30.5102 -0.00208266 29.5513 0.187309 28.6567 0.55729C27.7621 0.927271 26.9495 1.47054 26.2657 2.15581C25.5819 2.84109 25.0404 3.65484 24.6724 4.55023C24.3043 5.44562 24.117 6.40497 24.1212 7.37304V64.296V78.0906C24.1212 80.1512 24.9397 82.1274 26.3968 83.5845C27.8538 85.0415 29.83 85.8601 31.8906 85.8601H63.3805C65.4411 85.8601 67.4173 85.0415 68.8743 83.5845C70.3314 82.1274 71.15 80.1512 71.15 78.0906V64.296H71.1024ZM67.9312 64.1374H27.2448V7.37304C27.2448 6.24877 27.6903 5.17032 28.4838 4.37386C29.2773 3.57739 30.3541 3.12784 31.4783 3.12364H63.7928C64.9143 3.13201 65.987 3.58341 66.7771 4.37942C67.5672 5.17543 68.0105 6.2515 68.0105 7.37304L67.9312 64.1374Z" fill="#001767"/>
<path d="M47.6355 78.1529C49.387 78.1529 50.8067 76.7331 50.8067 74.9817C50.8067 73.2303 49.387 71.8105 47.6355 71.8105C45.8841 71.8105 44.4644 73.2303 44.4644 74.9817C44.4644 76.7331 45.8841 78.1529 47.6355 78.1529Z" fill="white"/>
<path d="M35.1408 21.3121V25.4822L48.555 30.7622L35.1408 35.8678V40.1965C35.1429 40.6525 35.0552 41.1045 34.8826 41.5266C34.71 41.9487 34.456 42.3327 34.135 42.6566C33.814 42.9805 33.4324 43.238 33.0119 43.4145C32.5914 43.5909 32.1402 43.6828 31.6842 43.6848H3.88873C2.97053 43.6806 2.09136 43.3129 1.44358 42.6622C0.795789 42.0114 0.432119 41.1306 0.432129 40.2124V21.3121C0.4363 20.3966 0.801814 19.5198 1.44915 18.8725C2.09649 18.2252 2.97327 17.8596 3.88873 17.8555H31.6842C32.5997 17.8596 33.4765 18.2252 34.1238 18.8725C34.7711 19.5198 35.1367 20.3966 35.1408 21.3121Z" fill="#FFC700"/>
<path d="M24.4855 28.2754H10.9287C10.8503 28.2754 10.7727 28.2597 10.7005 28.2292C10.6282 28.1988 10.5628 28.1541 10.5081 28.098C10.4535 28.0418 10.4106 27.9752 10.382 27.9022C10.3535 27.8292 10.3399 27.7512 10.342 27.6728C10.3398 27.5952 10.3535 27.5179 10.3822 27.4458C10.4109 27.3736 10.4541 27.308 10.509 27.2531C10.5639 27.1982 10.6295 27.1551 10.7016 27.1264C10.7738 27.0977 10.8511 27.084 10.9287 27.0862H24.4855C24.5632 27.084 24.6404 27.0977 24.7126 27.1264C24.7848 27.1551 24.8503 27.1982 24.9053 27.2531C24.9602 27.308 25.0033 27.3736 25.032 27.4458C25.0607 27.5179 25.0744 27.5952 25.0722 27.6728C25.0743 27.7512 25.0607 27.8292 25.0322 27.9022C25.0037 27.9752 24.9608 28.0418 24.9061 28.098C24.8514 28.1541 24.786 28.1988 24.7138 28.2292C24.6415 28.2597 24.5639 28.2754 24.4855 28.2754Z" fill="white"/>
<path d="M24.4858 34.5349H10.9289C10.7879 34.5118 10.6597 34.4393 10.5671 34.3304C10.4746 34.2215 10.4238 34.0832 10.4238 33.9403C10.4238 33.7974 10.4746 33.6591 10.5671 33.5502C10.6597 33.4413 10.7879 33.3688 10.9289 33.3457H24.4858C24.6268 33.3688 24.755 33.4413 24.8476 33.5502C24.9401 33.6591 24.9909 33.7974 24.9909 33.9403C24.9909 34.0832 24.9401 34.2215 24.8476 34.3304C24.755 34.4393 24.6268 34.5118 24.4858 34.5349Z" fill="white"/>
<path d="M60.8595 33.3143V37.4844L47.4453 42.7486L60.8595 47.8542V52.1987C60.8636 53.1142 61.2291 53.991 61.8765 54.6383C62.5238 55.2856 63.4006 55.6511 64.3161 55.6553H92.1116C93.027 55.6511 93.9038 55.2856 94.5511 54.6383C95.1985 53.991 95.564 53.1142 95.5682 52.1987V33.3143C95.5682 32.396 95.2045 31.5152 94.5567 30.8644C93.9089 30.2137 93.0298 29.846 92.1116 29.8418H64.3161C63.3979 29.846 62.5187 30.2137 61.8709 30.8644C61.2231 31.5152 60.8595 32.396 60.8595 33.3143Z" fill="#001767"/>
<path d="M84.6581 40.3378H71.1013C70.9603 40.3146 70.832 40.2422 70.7395 40.1332C70.647 40.0243 70.5962 39.8861 70.5962 39.7432C70.5962 39.6002 70.647 39.462 70.7395 39.3531C70.832 39.2441 70.9603 39.1717 71.1013 39.1486H84.6581C84.7444 39.1344 84.8326 39.1392 84.9168 39.1626C85.001 39.186 85.0791 39.2274 85.1457 39.284C85.2122 39.3405 85.2657 39.4109 85.3024 39.4902C85.3391 39.5695 85.3581 39.6558 85.3581 39.7432C85.3581 39.8305 85.3391 39.9168 85.3024 39.9961C85.2657 40.0754 85.2122 40.1458 85.1457 40.2024C85.0791 40.2589 85.001 40.3003 84.9168 40.3237C84.8326 40.3471 84.7444 40.3519 84.6581 40.3378Z" fill="white"/>
<path d="M84.6587 46.6171H71.1018C70.9448 46.613 70.7956 46.5477 70.686 46.4352C70.5764 46.3226 70.5151 46.1717 70.5151 46.0146C70.5151 45.859 70.5769 45.7098 70.687 45.5998C70.797 45.4898 70.9462 45.4279 71.1018 45.4279H84.6587C84.737 45.4258 84.815 45.4394 84.888 45.468C84.9611 45.4965 85.0276 45.5394 85.0838 45.5941C85.14 45.6488 85.1846 45.7142 85.2151 45.7864C85.2455 45.8586 85.2612 45.9362 85.2612 46.0146C85.2612 46.0937 85.2456 46.1721 85.2153 46.2452C85.185 46.3183 85.1407 46.3847 85.0847 46.4407C85.0288 46.4966 84.9623 46.541 84.8892 46.5713C84.8161 46.6016 84.7378 46.6171 84.6587 46.6171Z" fill="white"/>
</svg>
