<svg width="103" height="71" viewBox="0 0 103 71" fill="none" xmlns="http://www.w3.org/2000/svg">
<path d="M92.3033 13.7958L91.2897 2.4769C91.1759 1.21211 90.0598 0.278444 88.795 0.392196L2.99204 8.07666C1.72725 8.19042 0.79358 9.30654 0.907333 10.5713L5.55653 62.4806C5.67028 63.7454 6.78641 64.6791 8.0512 64.5653L11.5156 64.2545L92.3033 13.7958Z" fill="#FFC700"/>
<path d="M96.3775 70.6193H18.6852C15.0275 70.6193 12.063 67.9097 12.063 64.5665V19.7442C12.063 16.401 15.0275 13.6914 18.6852 13.6914H96.3775C100.035 13.6914 103 16.401 103 19.7442V64.5674C103 67.9097 100.035 70.6193 96.3775 70.6193Z" fill="#001767"/>
<path d="M33.4731 37.6369C30.3661 37.6369 27.8481 35.3345 27.8481 32.4956V30.1979C27.8481 27.3581 30.3671 25.0566 33.4731 25.0566C36.5801 25.0566 39.098 27.359 39.098 30.1979V32.4956C39.099 35.3355 36.5801 37.6369 33.4731 37.6369Z" fill="#FFE600"/>
<path d="M37.0767 36.4434C36.1007 37.1886 34.8448 37.6375 33.4736 37.6375C32.1025 37.6375 30.8466 37.1877 29.8705 36.4434C26.4503 37.7372 24.0425 40.8153 24.0425 44.4088V48.0604C24.0425 49.1474 25.0064 50.0284 26.1957 50.0284H40.7506C41.9398 50.0284 42.9038 49.1474 42.9038 48.0604V44.4088C42.9048 40.8153 40.497 37.7372 37.0767 36.4434Z" fill="#FFC700"/>
<path d="M90.7928 61.1495H24.2695C23.4319 61.1495 22.7539 60.5289 22.7539 59.7642C22.7539 58.9995 23.4319 58.3789 24.2695 58.3789H90.7928C91.6294 58.3789 92.3084 58.9995 92.3084 59.7642C92.3084 60.5289 91.6294 61.1495 90.7928 61.1495Z" fill="#FFC700"/>
<path d="M90.7934 49.5792H57.5317C56.6941 49.5792 56.0161 48.9586 56.0161 48.1939C56.0161 47.4292 56.6941 46.8086 57.5317 46.8086H90.7934C91.63 46.8086 92.309 47.4292 92.309 48.1939C92.309 48.9586 91.63 49.5792 90.7934 49.5792Z" fill="#FFC700"/>
<path d="M90.7928 26.4405H72.5771C71.7405 26.4405 71.0615 25.8208 71.0615 25.0552C71.0615 24.2896 71.7405 23.6699 72.5771 23.6699H90.7928C91.6294 23.6699 92.3084 24.2896 92.3084 25.0552C92.3084 25.8208 91.6294 26.4405 90.7928 26.4405Z" fill="#FFC700"/>
<path d="M63.869 26.4405H57.5317C56.6941 26.4405 56.0161 25.8208 56.0161 25.0552C56.0161 24.2896 56.6941 23.6699 57.5317 23.6699H63.869C64.7056 23.6699 65.3846 24.2896 65.3846 25.0552C65.3846 25.8208 64.7066 26.4405 63.869 26.4405Z" fill="#FFC700"/>
<path d="M90.7928 38.0108H72.5771C71.7405 38.0108 71.0615 37.3911 71.0615 36.6255C71.0615 35.8599 71.7405 35.2402 72.5771 35.2402H90.7928C91.6294 35.2402 92.3084 35.8599 92.3084 36.6255C92.3084 37.3911 91.6294 38.0108 90.7928 38.0108Z" fill="#FFC700"/>
<path d="M63.869 38.0108H57.5317C56.6941 38.0108 56.0161 37.3911 56.0161 36.6255C56.0161 35.8599 56.6941 35.2402 57.5317 35.2402H63.869C64.7056 35.2402 65.3846 35.8599 65.3846 36.6255C65.3846 37.3911 64.7066 38.0108 63.869 38.0108Z" fill="#FFC700"/>
</svg>
